# Blender v2.90.1 OBJ File: ''
# www.blender.org
o cube
v -1.000000 -1.000000 1.000000
v 1.000000 -1.000000 1.000000
v 1.000000 1.000000 1.000000
v -1.000000 1.000000 1.000000
v 1.000000 -1.000000 -1.000000
v -1.000000 -1.000000 -1.000000
v -1.000000 1.000000 -1.000000
v 1.000000 1.000000 -1.000000
vn 0.0000 -0.0000 1.0000
vn 0.0000 0.0000 -1.0000
vn -1.0000 -0.0000 0.0000
vn 1.0000 -0.0000 0.0000
vn 0.0000 -1.0000 -0.0000
vn 0.0000 1.0000 0.0000
s off
f 1//1 2//1 3//1
f 1//1 3//1 4//1
f 5//2 6//2 7//2
f 5//2 7//2 8//2
f 6//3 1//3 4//3
f 6//3 4//3 7//3
f 2//4 5//4 8//4
f 2//4 8//4 3//4
f 6//5 5//5 2//5
f 6//5 2//5 1//5
f 4//6 3//6 8//6
f 4//6 8//6 7//6
